<svg width="25" height="25" viewBox="0 0 25 25" fill="none" xmlns="http://www.w3.org/2000/svg">
<path fill-rule="evenodd" clip-rule="evenodd" d="M12.7178 16.03H2.72477C2.1347 16.03 1.56878 15.7865 1.15155 15.3531C0.734315 14.9197 0.499893 14.3319 0.499893 13.719V13.717C0.499893 13.1041 0.734315 12.5163 1.15155 12.0829C1.56878 11.6495 2.1347 11.406 2.72477 11.406H18.9403C19.5304 11.406 20.0963 11.6495 20.5135 12.0829C20.8043 12.3848 21.0062 12.7618 21.102 13.17C21.9817 13.1653 22.8234 13.4742 23.4126 13.9943C24.7338 15.1605 24.916 17.4883 23.5987 19.8205C22.7836 21.3489 20.7331 22.9073 19.0017 23.9261C18.7436 24.078 18.4276 24.078 18.1695 23.9261C17.1625 23.3335 16.0476 22.5585 15.1306 21.7129H2.72477C2.1347 21.7129 1.56878 21.4695 1.15155 21.0361C0.734315 20.6027 0.499893 20.0149 0.499893 19.4019V19.4C0.499893 18.7871 0.734315 18.1993 1.15155 17.7659C1.56878 17.3325 2.1347 17.089 2.72477 17.089H12.6877C12.6582 16.7201 12.6688 16.3651 12.7178 16.03ZM18.2257 15.0854C18.3166 15.1931 18.4478 15.2548 18.5856 15.2548C18.7234 15.2548 18.8546 15.193 18.9454 15.0854C20.0825 13.7279 21.9054 13.8146 22.8659 14.6625C23.936 15.607 23.936 17.496 22.8659 19.385C22.1169 20.8018 20.1907 22.2186 18.5856 23.1631C16.9805 22.2186 15.0543 20.8018 14.3053 19.385C13.2352 17.496 13.2352 15.607 14.3053 14.6625C15.2658 13.8146 17.0887 13.7279 18.2257 15.0854ZM12.829 17.9659H2.72477C2.35858 17.9659 2.00744 18.117 1.7485 18.3859C1.48956 18.6549 1.34411 19.0196 1.34411 19.4V19.4019C1.34411 19.7823 1.48956 20.1471 1.7485 20.416C2.00744 20.685 2.35858 20.8361 2.72477 20.8361H14.2806C13.9951 20.5003 13.7534 20.1596 13.5725 19.8205C13.2189 19.1945 12.9734 18.5689 12.829 17.9659ZM20.2535 13.2741C20.1868 13.0607 20.0722 12.8646 19.9166 12.7029C19.6577 12.434 19.3065 12.2829 18.9403 12.2829H2.72477C2.35858 12.2829 2.00744 12.434 1.7485 12.7029C1.48956 12.9719 1.34411 13.3366 1.34411 13.717V13.719C1.34411 14.0993 1.48956 14.4641 1.7485 14.7331C2.00744 15.002 2.35858 15.1531 2.72477 15.1531H12.9515C13.1349 14.699 13.4063 14.3053 13.7586 13.9943C14.9316 12.9589 17.1054 12.7603 18.5856 14.2073C19.0844 13.7197 19.662 13.4189 20.2535 13.2741ZM21.1652 8.03398C21.1652 7.42108 20.9308 6.8333 20.5135 6.39986C20.0963 5.96648 19.5304 5.72298 18.9403 5.72298H2.72477C2.1347 5.72298 1.56878 5.96648 1.15155 6.39986C0.734315 6.8333 0.499893 7.42108 0.499893 8.03398V8.03598C0.499893 8.64888 0.734315 9.23671 1.15155 9.67009C1.56878 10.1035 2.1347 10.347 2.72477 10.347H18.9403C19.5304 10.347 20.0963 10.1035 20.5135 9.67009C20.9308 9.23671 21.1652 8.64888 21.1652 8.03598V8.03398ZM20.321 8.03398C20.321 7.65367 20.1756 7.28889 19.9166 7.01992C19.6577 6.75096 19.3065 6.59988 18.9403 6.59988H2.72477C2.35858 6.59988 2.00744 6.75096 1.7485 7.01992C1.48956 7.28889 1.34411 7.65367 1.34411 8.03398V8.03598C1.34411 8.41634 1.48956 8.78107 1.7485 9.05003C2.00744 9.31899 2.35858 9.47008 2.72477 9.47008H18.9403C19.3065 9.47008 19.6577 9.31899 19.9166 9.05003C20.1756 8.78107 20.321 8.41634 20.321 8.03598V8.03398ZM21.1652 2.351C21.1652 1.73809 20.9308 1.15027 20.5135 0.716882C20.0963 0.283497 19.5304 0.0400009 18.9403 0.0400009H2.72477C2.1347 0.0400009 1.56878 0.283497 1.15155 0.716882C0.734315 1.15027 0.499893 1.73809 0.499893 2.351V2.35294C0.499893 2.9659 0.734315 3.55367 1.15155 3.98711C1.56878 4.42049 2.1347 4.66394 2.72477 4.66394H18.9403C19.5304 4.66394 20.0963 4.42049 20.5135 3.98711C20.9308 3.55367 21.1652 2.9659 21.1652 2.35294V2.351ZM20.321 2.351C20.321 1.97063 20.1756 1.60585 19.9166 1.33694C19.6577 1.06798 19.3065 0.916898 18.9403 0.916898H2.72477C2.35858 0.916898 2.00744 1.06798 1.7485 1.33694C1.48956 1.60585 1.34411 1.97063 1.34411 2.351V2.35294C1.34411 2.73331 1.48956 3.09809 1.7485 3.36705C2.00744 3.63601 2.35858 3.78709 2.72477 3.78709H18.9403C19.3065 3.78709 19.6577 3.63601 19.9166 3.36705C20.1756 3.09809 20.321 2.73331 20.321 2.35294V2.351Z" fill="white"/>
</svg>
