<svg width="24" height="24" viewBox="0 0 24 24" fill="none" xmlns="http://www.w3.org/2000/svg">
<path fill-rule="evenodd" clip-rule="evenodd" d="M12.2179 15.99H2.22487C1.63481 15.99 1.06889 15.7465 0.651656 15.3131C0.234422 14.8797 0 14.2919 0 13.679V13.677C0 13.0641 0.234422 12.4763 0.651656 12.0429C1.06889 11.6095 1.63481 11.366 2.22487 11.366H18.4404C19.0305 11.366 19.5964 11.6095 20.0136 12.0429C20.3044 12.3448 20.5063 12.7218 20.6021 13.13C21.4818 13.1253 22.3235 13.4342 22.9127 13.9543C24.2339 15.1205 24.4161 17.4483 23.0988 19.7805C22.2837 21.3089 20.2332 22.8673 18.5018 23.8861C18.2437 24.038 17.9277 24.038 17.6696 23.8861C16.6626 23.2935 15.5477 22.5185 14.6307 21.6729H2.22487C1.63481 21.6729 1.06889 21.4295 0.651656 20.9961C0.234422 20.5627 0 19.9749 0 19.3619V19.36C0 18.7471 0.234422 18.1593 0.651656 17.7259C1.06889 17.2925 1.63481 17.049 2.22487 17.049H12.1878C12.1583 16.6801 12.1689 16.3251 12.2179 15.99ZM17.7258 15.0454C17.8167 15.1531 17.9479 15.2148 18.0857 15.2148C18.2235 15.2148 18.3547 15.153 18.4455 15.0454C19.5826 13.6879 21.4055 13.7746 22.366 14.6225C23.4361 15.567 23.4361 17.456 22.366 19.345C21.617 20.7618 19.6908 22.1786 18.0857 23.1231C16.4806 22.1786 14.5544 20.7618 13.8054 19.345C12.7353 17.456 12.7353 15.567 13.8054 14.6225C14.7659 13.7746 16.5888 13.6879 17.7258 15.0454ZM12.3291 17.9259H2.22487C1.85869 17.9259 1.50755 18.077 1.24861 18.3459C0.989671 18.6148 0.844218 18.9796 0.844218 19.36V19.3619C0.844218 19.7423 0.989671 20.1071 1.24861 20.376C1.50755 20.645 1.85869 20.7961 2.22487 20.7961H13.7807C13.4952 20.4603 13.2535 20.1196 13.0726 19.7805C12.7191 19.1545 12.4735 18.5289 12.3291 17.9259ZM19.7536 13.2341C19.6869 13.0207 19.5723 12.8246 19.4167 12.6629C19.1578 12.394 18.8066 12.2429 18.4404 12.2429H2.22487C1.85869 12.2429 1.50755 12.394 1.24861 12.6629C0.989671 12.9319 0.844218 13.2966 0.844218 13.677V13.679C0.844218 14.0593 0.989671 14.4241 1.24861 14.6931C1.50755 14.962 1.85869 15.1131 2.22487 15.1131H12.4516C12.635 14.659 12.9064 14.2653 13.2587 13.9543C14.4317 12.9189 16.6055 12.7203 18.0857 14.1673C18.5845 13.6797 19.1621 13.3789 19.7536 13.2341ZM20.6653 7.99398C20.6653 7.38108 20.4309 6.7933 20.0136 6.35986C19.5964 5.92648 19.0305 5.68298 18.4404 5.68298H2.22487C1.63481 5.68298 1.06889 5.92648 0.651656 6.35986C0.234422 6.7933 0 7.38108 0 7.99398V7.99598C0 8.60888 0.234422 9.19671 0.651656 9.63009C1.06889 10.0635 1.63481 10.307 2.22487 10.307H18.4404C19.0305 10.307 19.5964 10.0635 20.0136 9.63009C20.4309 9.19671 20.6653 8.60888 20.6653 7.99598V7.99398ZM19.8211 7.99398C19.8211 7.61367 19.6757 7.24888 19.4167 6.97992C19.1578 6.71096 18.8066 6.55988 18.4404 6.55988H2.22487C1.85869 6.55988 1.50755 6.71096 1.24861 6.97992C0.989671 7.24888 0.844218 7.61367 0.844218 7.99398V7.99598C0.844218 8.37634 0.989671 8.74107 1.24861 9.01003C1.50755 9.27899 1.85869 9.43007 2.22487 9.43007H18.4404C18.8066 9.43007 19.1578 9.27899 19.4167 9.01003C19.6757 8.74107 19.8211 8.37634 19.8211 7.99598V7.99398ZM20.6653 2.311C20.6653 1.69809 20.4309 1.11027 20.0136 0.676881C19.5964 0.243496 19.0305 0 18.4404 0H2.22487C1.63481 0 1.06889 0.243496 0.651656 0.676881C0.234422 1.11027 0 1.69809 0 2.311V2.31294C0 2.92589 0.234422 3.51367 0.651656 3.94711C1.06889 4.38049 1.63481 4.62394 2.22487 4.62394H18.4404C19.0305 4.62394 19.5964 4.38049 20.0136 3.94711C20.4309 3.51367 20.6653 2.92589 20.6653 2.31294V2.311ZM19.8211 2.311C19.8211 1.93063 19.6757 1.56585 19.4167 1.29694C19.1578 1.02798 18.8066 0.876897 18.4404 0.876897H2.22487C1.85869 0.876897 1.50755 1.02798 1.24861 1.29694C0.989671 1.56585 0.844218 1.93063 0.844218 2.311V2.31294C0.844218 2.69331 0.989671 3.05809 1.24861 3.32705C1.50755 3.59601 1.85869 3.74709 2.22487 3.74709H18.4404C18.8066 3.74709 19.1578 3.59601 19.4167 3.32705C19.6757 3.05809 19.8211 2.69331 19.8211 2.31294V2.311Z" fill="#999999"/>
</svg>
