<svg width="24" height="24" viewBox="0 0 24 24" fill="none" xmlns="http://www.w3.org/2000/svg">
<path fill-rule="evenodd" clip-rule="evenodd" d="M18.0857 14.5509C19.5659 13.1604 21.7396 13.3512 22.9127 14.3462C24.2339 15.4669 24.4161 17.7039 23.0988 19.9451C22.2837 21.4138 20.2332 22.9115 18.5018 23.8905C18.2437 24.0365 17.9277 24.0365 17.6696 23.8905C15.9382 22.9115 13.8877 21.4138 13.0727 19.9451C11.7553 17.7039 11.9375 15.4669 13.2587 14.3462C14.4317 13.3512 16.6055 13.1604 18.0857 14.5509ZM11.3632 16.3839C11.2319 17.5856 11.5249 18.977 12.3445 20.3715C12.4285 20.523 12.5249 20.6751 12.6322 20.8274H2.22488C1.63482 20.8274 1.06891 20.5934 0.651666 20.177C0.234425 19.7605 0 19.1956 0 18.6066V18.6047C0 18.0157 0.234425 17.4509 0.651666 17.0343C1.06891 16.6178 1.63482 16.3839 2.22488 16.3839H11.3632ZM11.5906 15.3661H2.22488C1.63482 15.3661 1.06891 15.1322 0.651666 14.7157C0.234425 14.2992 0 13.7343 0 13.1453V13.1434C0 12.5544 0.234425 11.9895 0.651666 11.5731C1.06891 11.1566 1.63482 10.9226 2.22488 10.9226H18.4405C19.0305 10.9226 19.5964 11.1566 20.0137 11.5731C20.329 11.8877 20.5398 12.2872 20.6241 12.7177C19.7638 12.7158 18.8736 12.9477 18.0857 13.4764C16.3093 12.2842 14.012 12.6014 12.7121 13.704C12.204 14.135 11.8221 14.7037 11.5906 15.3661ZM20.6653 7.68215C20.6653 7.09312 20.4309 6.52823 20.0137 6.11175C19.5964 5.69526 19.0305 5.46131 18.4405 5.46131H2.22488C1.63482 5.46131 1.06891 5.69526 0.651666 6.11175C0.234425 6.52823 0 7.09312 0 7.68215V7.68403C0 8.27301 0.234425 8.8379 0.651666 9.25439C1.06891 9.67087 1.63482 9.90487 2.22488 9.90487H18.4405C19.0305 9.90487 19.5964 9.67087 20.0137 9.25439C20.4309 8.8379 20.6653 8.27301 20.6653 7.68403V7.68215ZM20.6653 2.22084C20.6653 1.63186 20.4309 1.06697 20.0137 0.650484C19.5964 0.234 19.0305 0 18.4405 0H2.22488C1.63482 0 1.06891 0.234 0.651666 0.650484C0.234425 1.06697 0 1.63186 0 2.22084V2.22272C0 2.81175 0.234425 3.37659 0.651666 3.79308C1.06891 4.20956 1.63482 4.44356 2.22488 4.44356H18.4405C19.0305 4.44356 19.5964 4.20956 20.0137 3.79308C20.4309 3.37659 20.6653 2.81175 20.6653 2.22272V2.22084Z" fill="#052724"/>
</svg>
