<svg width="24" height="24" viewBox="0 0 24 24" fill="none" xmlns="http://www.w3.org/2000/svg">
<g clip-path="url(#clip0)">
<path d="M19.9688 23.249H4.03125C2.84231 23.249 1.875 22.2817 1.875 21.0927V9.74805C1.875 9.33386 2.21077 8.99805 2.625 8.99805C3.03923 8.99805 3.375 9.33386 3.375 9.74805V21.0927C3.375 21.4546 3.66938 21.749 4.03125 21.749H19.9688C20.3306 21.749 20.625 21.4546 20.625 21.0927V9.74805C20.625 9.33386 20.9608 8.99805 21.375 8.99805C21.7892 8.99805 22.125 9.33386 22.125 9.74805V21.0927C22.125 22.2817 21.1577 23.249 19.9688 23.249Z" fill="#999999"/>
<path d="M23.2502 12.3727C23.0583 12.3727 22.8664 12.2995 22.7199 12.153L13.3923 2.8255C12.6247 2.05788 11.3758 2.05788 10.6081 2.8255L1.28058 12.1531C0.987701 12.446 0.512811 12.446 0.219936 12.1531C-0.0729863 11.8602 -0.0729863 11.3853 0.219936 11.0924L9.5475 1.76482C10.8999 0.412379 13.1006 0.412379 14.453 1.76482L23.7805 11.0924C24.0735 11.3853 24.0735 11.8601 23.7805 12.153C23.6341 12.2995 23.4422 12.3727 23.2502 12.3727Z" fill="#999999"/>
<path d="M15 23.249H9C8.58577 23.249 8.25 22.9132 8.25 22.499V15.8428C8.25 14.5504 9.30141 13.499 10.5938 13.499H13.4062C14.6986 13.499 15.75 14.5504 15.75 15.8428V22.499C15.75 22.9132 15.4142 23.249 15 23.249ZM9.75 21.749H14.25V15.8428C14.25 15.3775 13.8715 14.999 13.4062 14.999H10.5938C10.1285 14.999 9.75 15.3775 9.75 15.8428V21.749Z" fill="#999999"/>
</g>
<defs>
<clipPath id="clip0">
<rect width="24" height="24" fill="white"/>
</clipPath>
</defs>
</svg>
