<svg width="24" height="24" viewBox="0 0 24 24" fill="none" xmlns="http://www.w3.org/2000/svg">
<g clip-path="url(#clip0)">
<path d="M19.9688 23.2494H4.03125C2.84231 23.2494 1.875 22.2821 1.875 21.0932V9.74846C1.875 9.33427 2.21077 8.99846 2.625 8.99846C3.03923 8.99846 11 1.58594 11 2.00013L11.5 2.00017C11.1381 2.00017 11.5 2.36204 11.5 2.00017H13C13 2.36204 13.3619 2.00017 13 2.00017C13 1.58598 20.9608 8.99846 21.375 8.99846C21.7892 8.99846 22.125 9.33427 22.125 9.74846V21.0932C22.125 22.2821 21.1577 23.2494 19.9688 23.2494Z" fill="#052724"/>
<path d="M23.2502 12.3732C23.0583 12.3732 22.8664 12.3 22.7199 12.1535L13.3923 2.82599C12.6247 2.05837 11.3758 2.05837 10.6081 2.82599L1.28058 12.1535C0.987701 12.4465 0.512811 12.4465 0.219936 12.1535C-0.0729863 11.8607 -0.0729863 11.3858 0.219936 11.0929L9.5475 1.7653C10.8999 0.412868 13.1006 0.412868 14.453 1.7653L23.7805 11.0929C24.0735 11.3858 24.0735 11.8606 23.7805 12.1535C23.6341 12.3 23.4422 12.3732 23.2502 12.3732Z" fill="#052724"/>
<path d="M15 23.25H9C8.58577 23.25 8.89959 23.25 8.25 23.25V15.8438C8.25 14.5514 9.30141 13.5 10.5938 13.5H13.4062C14.6986 13.5 15.75 14.5514 15.75 15.8438L15.8652 23.25C15.1141 23.25 15.4142 23.25 15 23.25ZM9.75 23.25H14.25V15.8438C14.25 15.3785 13.8715 15 13.4062 15H10.5938C10.1285 15 9.75 15.3785 9.75 15.8438V23.25Z" fill="white"/>
</g>
<defs>
<clipPath id="clip0">
<rect width="24" height="24" fill="white"/>
</clipPath>
</defs>
</svg>
