<svg width="25" height="25" viewBox="0 0 25 25" fill="none" xmlns="http://www.w3.org/2000/svg">
<path d="M17.8047 0.5C17.0387 0.5 14.7664 0.5 12.06 4.52963C11.0898 3.04815 9.0983 0.5 6.31532 0.5C2.86851 0.5 0.0600014 3.75926 0.0600014 7.75926C0.0600014 8.70741 0.213193 9.62593 0.519576 10.5148C1.08128 12.1148 4.19617 15.7 8.17915 20.2037C9.71106 21.9222 11.0132 23.4333 11.677 24.2926C11.7792 24.4111 11.9068 24.5 12.06 24.5C12.2132 24.5 12.3409 24.4407 12.443 24.2926C13.1068 23.4333 14.4345 21.9222 15.9409 20.2037C19.9238 15.7 23.0132 12.1148 23.6004 10.4852C23.9068 9.62593 24.06 8.67778 24.06 7.72963C24.06 3.75926 21.2515 0.5 17.8047 0.5ZM22.6557 10.0407C22.1196 11.5519 18.1366 16.0556 15.2515 19.3444C13.9494 20.7963 12.826 22.1 12.0855 23.0185C11.3451 22.1 10.1962 20.8259 8.91958 19.3444C6.00894 16.0556 2.02596 11.5519 1.51532 10.0407C1.20894 9.32963 1.08128 8.55926 1.08128 7.75926C1.08128 4.41111 3.43021 1.68519 6.31532 1.68519C8.76638 1.68519 10.5281 4.08519 11.6515 5.89259C11.7536 6.04074 11.9068 6.12963 12.06 6.12963C12.2132 6.12963 12.3919 6.04074 12.4685 5.89259C13.5664 4.08519 15.3281 1.68519 17.8047 1.68519C20.6898 1.68519 23.0387 4.41111 23.0387 7.75926C23.0387 8.55926 22.9111 9.32963 22.6557 10.0407Z" fill="#FE6D73"/>
</svg>
