<svg width="24" height="24" viewBox="0 0 24 24" fill="none" xmlns="http://www.w3.org/2000/svg">
<path d="M23.7414 7.63726C23.7414 9.52035 23.118 11.4064 21.8686 12.8365L21.0848 13.7336L12.6287 23.4126C12.2821 23.8093 11.7208 23.8093 11.3741 23.4126L2.91546 13.7336L2.13168 12.8365C-0.364531 9.97631 -0.364531 5.2982 2.13168 2.43803C3.38108 1.00795 5.02625 0.294388 6.67401 0.294388C8.31918 0.294388 9.96694 1.00795 11.2163 2.43803L12.0001 3.33516L12.7839 2.43803C15.2827 -0.422134 19.3698 -0.422134 21.8686 2.43803C23.1154 3.86811 23.7414 5.7512 23.7414 7.63726Z" fill="#FE6D73"/>
<path d="M23.4827 7.63725C23.4775 9.36638 22.9265 11.0659 21.9125 12.3539C21.571 12.7891 21.196 13.1888 20.8338 13.6033C20.5338 13.9468 20.2363 14.2873 19.9362 14.6307C19.3956 15.2496 18.855 15.8684 18.3143 16.4872C17.6599 17.2363 17.0054 17.9854 16.3536 18.7315C15.7198 19.4569 15.0887 20.1793 14.4549 20.9047C13.9789 21.4495 13.5004 21.9973 13.0244 22.5421C12.8304 22.7641 12.6416 22.9892 12.445 23.2053C12.1811 23.4984 11.7905 23.4718 11.5345 23.1816C11.4491 23.0839 11.3637 22.9862 11.281 22.8915C10.8826 22.4355 10.4868 21.9825 10.0885 21.5265C9.49093 20.8426 8.89598 20.1616 8.29844 19.4776C7.63882 18.7226 6.98179 17.9706 6.32217 17.2155C5.72721 16.5346 5.13485 15.8565 4.5399 15.1755C4.14671 14.7255 3.75352 14.2754 3.36034 13.8254C3.11977 13.55 2.87662 13.2717 2.63605 12.9964C2.30495 12.6174 1.97384 12.2443 1.69965 11.8091C1.31422 11.2021 1.01157 10.527 0.812392 9.8105C0.42438 8.41595 0.421793 6.90889 0.802045 5.51137C1.21075 4.01023 2.07473 2.68082 3.21548 1.80145C4.46488 0.839179 6.00141 0.430584 7.49655 0.655607C8.87787 0.862866 10.1247 1.61196 11.1051 2.73411C11.343 3.00651 11.581 3.27891 11.819 3.5513C11.9173 3.66381 12.0854 3.66381 12.1837 3.5513C12.6468 3.02131 13.0969 2.44691 13.6246 1.99686C14.4678 1.28034 15.4663 0.809571 16.5088 0.652646C18.6584 0.329916 20.8364 1.3366 22.1789 3.28483C23.0274 4.51653 23.4775 6.07097 23.4827 7.63725C23.4827 8.0192 24 8.0192 24 7.63725C23.9948 6.15387 23.6249 4.67938 22.911 3.43879C22.241 2.27518 21.2943 1.32179 20.1897 0.729628C18.141 -0.36588 15.6758 -0.217838 13.7591 1.16783C13.0218 1.70078 12.4295 2.42322 11.8164 3.12494C11.938 3.12494 12.0596 3.12494 12.1811 3.12494C11.9328 2.8407 11.6845 2.55646 11.4388 2.27518C10.9473 1.71262 10.3911 1.23001 9.77547 0.862866C8.37863 0.0338324 6.75157 -0.205995 5.21504 0.178913C3.68368 0.563821 2.31529 1.57939 1.36337 2.99763C0.533024 4.23822 0.0622355 5.76897 0.00532707 7.32933C-0.0489946 8.87784 0.31315 10.4471 1.0452 11.7528C1.51081 12.5848 2.13163 13.251 2.73693 13.9438C2.95681 14.1955 3.17927 14.4501 3.39914 14.7018C3.90614 15.2821 4.41315 15.8624 4.92015 16.4428C5.56942 17.1859 6.2187 17.9291 6.87056 18.6752C7.53018 19.4303 8.18721 20.1823 8.84683 20.9373C9.37194 21.5384 9.89705 22.1394 10.4222 22.7405C10.6731 23.0277 10.9214 23.3149 11.1723 23.5991C11.5448 24.0225 12.1242 24.135 12.5847 23.8182C12.7166 23.7264 12.8201 23.605 12.9287 23.4807C13.2702 23.0898 13.6116 22.699 13.9505 22.3111C14.5273 21.6509 15.1042 20.9906 15.6784 20.3333C16.3458 19.5694 17.0158 18.8026 17.6832 18.0387C18.3092 17.3221 18.9351 16.6056 19.5637 15.8861C20.0061 15.3798 20.4458 14.8765 20.8881 14.3702C21.0873 14.1422 21.2839 13.9172 21.4831 13.6892C21.8116 13.3132 22.1505 12.949 22.448 12.5404C22.9601 11.8357 23.3585 11.0333 23.6249 10.1688C23.8758 9.3575 23.9974 8.49293 24 7.63133C24 7.2553 23.4827 7.2553 23.4827 7.63725Z" fill="#FE6D73"/>
</svg>
