<svg width="24" height="21" viewBox="0 0 24 21" fill="none" xmlns="http://www.w3.org/2000/svg">
<path fill-rule="evenodd" clip-rule="evenodd" d="M21.6253 13L18.235 8H5.76503L3.75129 11H3.76051L2.42416 13H9C9 14.6569 10.3431 16 12 16C13.6569 16 15 14.6569 15 13H21.6253ZM24 13V21H0V13L4.69873 6H19.3013L24 13ZM7.41604 15H2V19H22V15H16.584C15.8124 16.7659 14.0503 18 12 18C9.94968 18 8.1876 16.7659 7.41604 15ZM13 4H11V0H13V4ZM17.778 4.62832L16.222 3.37168L18.645 0.371677L20.2009 1.62832L17.778 4.62832ZM7.77795 3.37168L6.22205 4.62832L3.79906 1.62832L5.35497 0.371677L7.77795 3.37168Z" fill="#094E47"/>
</svg>
